<?xml version="1.0" encoding="UTF-8" standalone="no"?>
<!-- Generator: Adobe Illustrator 19.0.0, SVG Export Plug-In . SVG Version: 6.00 Build 0)  -->

<svg
   xmlns:dc="http://purl.org/dc/elements/1.1/"
   xmlns:cc="http://creativecommons.org/ns#"
   xmlns:rdf="http://www.w3.org/1999/02/22-rdf-syntax-ns#"
   xmlns:svg="http://www.w3.org/2000/svg"
   xmlns="http://www.w3.org/2000/svg"
   xmlns:sodipodi="http://sodipodi.sourceforge.net/DTD/sodipodi-0.dtd"
   xmlns:inkscape="http://www.inkscape.org/namespaces/inkscape"
   version="1.1"
   id="Layer_1"
   x="0px"
   y="0px"
   viewBox="0 0 512.004 512.004"
   style="enable-background:new 0 0 512.004 512.004;"
   xml:space="preserve"
   sodipodi:docname="asteroid.svg"
   inkscape:version="0.92.2 5c3e80d, 2017-08-06"><metadata
     id="metadata91"><rdf:RDF><cc:Work
         rdf:about=""><dc:format>image/svg+xml</dc:format><dc:type
           rdf:resource="http://purl.org/dc/dcmitype/StillImage" /></cc:Work></rdf:RDF></metadata><defs
     id="defs89" /><sodipodi:namedview
     pagecolor="#ffffff"
     bordercolor="#666666"
     borderopacity="1"
     objecttolerance="10"
     gridtolerance="10"
     guidetolerance="10"
     inkscape:pageopacity="0"
     inkscape:pageshadow="2"
     inkscape:window-width="1920"
     inkscape:window-height="1017"
     id="namedview87"
     showgrid="false"
     inkscape:zoom="0.92186775"
     inkscape:cx="290.31453"
     inkscape:cy="334.72926"
     inkscape:window-x="1920"
     inkscape:window-y="0"
     inkscape:window-maximized="1"
     inkscape:current-layer="Layer_1" /><path
     style="fill:#f95633;fill-opacity:1;stroke-width:1.23508477"
     d="M 191.18084,462.55168 C 152.70627,501.284 90.324597,501.284 51.850908,462.55255 c -38.473691,-38.73146 -38.474562,-101.53198 0,-140.2643 L 267.81225,104.87999 c 7.69544,-7.746993 20.17213,-7.746993 27.86582,-0.001 7.69369,7.74524 7.69369,20.30552 -10e-4,28.05251 l -34.83183,35.0652 c -7.69542,7.74699 -7.69542,20.30727 0,28.05426 7.69457,7.74612 20.17039,7.74525 27.86582,-0.001 L 455.90604,27.732514 c 7.69544,-7.746993 20.17213,-7.746993 27.86582,-0.0018 7.69456,7.746116 7.69544,20.307269 0,28.054262 l -90.56432,91.171094 c -7.69457,7.74611 -7.69369,20.30552 0,28.05075 7.69456,7.74613 20.17038,7.74525 27.86407,0 l 27.86581,-28.05249 c 7.69457,-7.74613 20.17038,-7.74525 27.86408,0 7.69543,7.74699 7.69543,20.30726 0.001,28.05249 L 191.17649,462.54724 Z"
     id="path2"
     inkscape:connector-curvature="0" /><circle
     style="fill:#9bfd77;fill-opacity:1;stroke-width:1.23509848"
     cx="-190.35168"
     cy="362.77341"
     r="59.316841"
     id="circle4"
     transform="matrix(0.70474199,-0.70946369,0.70474199,0.70946369,0,0)" /><path
     style="fill:#1de765;fill-opacity:1;stroke-width:1.23508477"
     d="m 163.31502,434.49915 c 23.08544,-23.24009 23.08544,-60.91916 0,-84.15927 -23.08543,-23.2401 -60.51374,-23.2401 -83.599167,0 8.6e-4,8.8e-4 65.939977,5.04023 83.599167,84.15927"
     id="path6"
     inkscape:connector-curvature="0" /><g
     id="g12"
     transform="matrix(1.230968,0,0,1.2392153,-47.17645,-47.302374)"><path
       style="fill:#1d1d1b"
       d="M 431.16675,184.89717 199.13249,416.93143 c -34.23811,34.23811 -89.94681,34.23811 -124.184923,0 -34.23811,-34.23811 -34.23811,-89.94681 0,-124.18492 L 250.38783,117.30625 c 9.273,-9.273 24.36195,-9.27371 33.63495,-7.1e-4 9.273,9.273 9.27229,24.36195 -7.1e-4,33.63495 l -28.29629,28.29629 c -3.20956,3.20956 -3.20885,8.43154 0,11.64039 3.20885,3.20885 8.43083,3.20815 11.63968,-7e-4 L 403.19007,55.05186 c 9.273,-9.272998 24.36195,-9.273705 33.63495,-7.07e-4 9.273,9.272998 9.273,24.362657 0,33.635655 l -73.57163,73.571632 c -3.20885,3.20885 -3.20885,8.43013 0,11.63898 3.20885,3.20885 8.43083,3.20814 11.63897,0 l 22.63732,-22.63732 c 9.273,-9.273 24.36124,-9.273 33.63424,0 9.273,9.273 9.27583,24.36407 0.003,33.63707 z M 85.945199,303.74414 c -28.173963,28.17397 -28.173963,74.0157 0,102.18966 28.173961,28.17396 74.015691,28.17396 102.189661,0 L 420.16912,173.89954 c 3.20885,-3.20885 3.20814,-8.43083 -7.1e-4,-11.63969 -3.20885,-3.20885 -8.43083,-3.20814 -11.63898,0 l -22.63731,22.63732 c -9.273,9.273 -24.36125,9.273 -33.63424,0 -9.273,-9.273 -9.273,-24.36124 0,-33.63424 l 73.57163,-73.571632 c 3.20956,-3.209558 3.20885,-8.431541 0,-11.640392 -3.20885,-3.208851 -8.43084,-3.208144 -11.63969,7.07e-4 L 278.36522,201.87622 c -9.273,9.273 -24.36195,9.2737 -33.63495,7.1e-4 -9.273,-9.273 -9.273,-24.36266 0,-33.63566 l 28.29629,-28.29629 c 3.20956,-3.20956 3.20956,-8.43084 7.1e-4,-11.63969 -3.20885,-3.20885 -8.43084,-3.20814 -11.63969,7.1e-4 L 85.94732,303.74626 Z"
       id="path8"
       inkscape:connector-curvature="0" /><path
       style="fill:#1d1d1b"
       d="m 176.49517,394.29412 c -21.75555,21.75555 -57.15402,21.75484 -78.909579,-7.1e-4 -21.755555,-21.75556 -21.755555,-57.15473 -7.07e-4,-78.90958 21.755556,-21.75556 57.154736,-21.75556 78.910286,0 21.75556,21.75555 21.75485,57.15544 0,78.91029 z m -67.91265,-67.91266 c -15.691411,15.69141 -15.690704,41.22291 7e-4,56.91432 15.69141,15.6914 41.22362,15.6914 56.91432,7e-4 15.69141,-15.6914 15.69141,-41.22361 0,-56.91502 -15.69141,-15.69141 -41.22362,-15.69141 -56.91502,0 z"
       id="path10"
       inkscape:connector-curvature="0" /></g><g
     id="g24"
     transform="matrix(0.87042581,-0.87625758,0.87042581,0.87625758,-157.07766,259.32142)"><rect
       x="144.46213"
       y="180.81412"
       style="fill:#000000;fill-opacity:0.67843137"
       width="48.026001"
       height="15.552"
       id="rect14" /><rect
       x="174.76448"
       y="231.99202"
       style="fill:#000000;fill-opacity:0.67843137"
       width="96.041"
       height="15.552"
       id="rect16" /><rect
       x="163.16406"
       y="277.57532"
       style="fill:#000000;fill-opacity:0.67843137"
       width="32.014"
       height="15.552"
       id="rect18" /><rect
       x="214.91048"
       y="278.82986"
       style="fill:#000000;fill-opacity:0.67843137"
       width="120.054"
       height="15.552"
       id="rect20" /><rect
       x="208.48512"
       y="180.81412"
       style="fill:#000000;fill-opacity:0.67843137"
       width="40.016998"
       height="15.552"
       id="rect22" /></g><g
     id="g56" /><g
     id="g58" /><g
     id="g60" /><g
     id="g62" /><g
     id="g64" /><g
     id="g66" /><g
     id="g68" /><g
     id="g70" /><g
     id="g72" /><g
     id="g74" /><g
     id="g76" /><g
     id="g78" /><g
     id="g80" /><g
     id="g82" /><g
     id="g84" /></svg>